# xmcd CD database file
# Copyright (C) 1993-1997  Ti Kan
#
# Track frame offsets:
#	183
#	14888
#	30093
#	46823
#	58488
#	75383
#	91368
#	102528
#	120888
#	134483
#
# Disc length: 1974 seconds
#
# Revision: 1
# Processed by: cddbd v1.4b41PL1 Copyright (c) Steve Scherf et al.
# Submitted via: xmcd 2.1 PL1
#
DISCID=7c07b40a
DTITLE=Ronna Reeves - The More I Learn
DYEAR=1900
DGENRE=
TTITLE0=The More I Learn (The Less I Understand About Love)
TTITLE1=I'll Be Faithful To You
TTITLE2=What If You're Wrong
TTITLE3=Heartbreak Shoes
TTITLE4=Honky Tonk Hearts
TTITLE5=There's Love On The Line
TTITLE6=We Can Hold Our Own
TTITLE7=Nobody Here To Love
TTITLE8=Frontier Justice
TTITLE9=Bless Your Cheatin' Heart
EXTD=
EXTT0=
EXTT1=
EXTT2=
EXTT3=
EXTT4=
EXTT5=
EXTT6=
EXTT7=
EXTT8=
EXTT9=
PLAYORDER=
